<svg fill="none" height="28" viewBox="0 0 93 28" width="93" xmlns="http://www.w3.org/2000/svg" xmlns:xlink="http://www.w3.org/1999/xlink" class="tablet-landscape:hidden desktop-sm:block">
    <clipPath id="a">
        <path d="m0 0h93v28h-93z"></path>
    </clipPath>
    <g clip-path="url(#a)" fill="#362e2e">
        <path d="m0 5.80866c.178782-.57209.357565-1.14419.572103-1.82355.196661.24135.312869.38437.420139.53634.822398 1.09056 1.841458 1.93082 3.057178 2.55655 2.94991 1.52857 5.89088 3.0571 8.84078 4.5946.447.2325.9207.4291 1.3498.6883 2.0292 1.1979 2.5477 3.1913 1.3409 5.2294-1.8683 3.1644-3.7455 6.3288-5.62273 9.4932-.12514.2145-.25923.4291-.44695.6257.12515-.5006.24135-1.0012.3665-1.5017.42018-1.7789-.01788-3.3611-1.028-4.8629-1.9666-2.9141-3.87957-5.8639-5.81042-8.7959-.01788-.0358-.02682-.0715-.07151-.2146 2.77112 1.7163 5.47073 3.3879 8.17031 5.0595.2146-.5363.009-1.0727-.581-1.4928-.71513-.5095-1.44814-1.0012-2.17221-1.4928-1.83252-1.2694-3.64716-2.5745-5.51543-3.7902-1.38557-.90279-2.476139-1.98441-2.86946-3.64707 0-.38437 0-.76875 0-1.16207z"></path>
        <path d="m3.88946-.00061035c.15196.22347535.22347.33074335.30393.42907235.50059.563156.94754 1.197828 1.52858 1.653718.68832.53634 1.46602.96541 2.25266 1.35872 2.84267 1.40343 5.70317 2.78003 8.55477 4.15664 2.0649 1.00117 2.78 3.15546 1.7073 5.18466-.429.8134-.8671 1.6179-1.3408 2.485-.0626-.1162-.0894-.152-.0894-.1877.0983-1.618-.7777-2.6817-2.0471-3.4594-3.0661-1.86826-6.19479-3.62031-9.22515-5.54219-2.02024-1.26934-2.29735-2.59231-1.99342-4.75555.06257-.402254.2056-.79557.34863-1.32297035z"></path>
        <path d="m50.8475 17.8097c-.0536 1.8057 1.5375 3.5041 3.4058 3.7008 1.2157.1341 2.3331-.1431 3.3611-.7956.1162-.0715.2235-.152.3487-.1877.4112-.152.7687-.0447 1.0369.295.2771.3486.2592.7419-.0268 1.0637-.1967.2324-.447.4559-.7241.581-1.904.885-3.8885 1.171-5.8998.447-2.2258-.8045-3.4505-2.4761-3.7634-4.7913-.3218-2.4135.3576-4.4874 2.3153-6.0338 2.5297-2.0113 7.8217-1.8057 9.1089 3.4057.0626.2593.1073.5274.152.7867.143.9743-.3218 1.5196-1.2962 1.5285-2.5029 0-5.0059 0-7.5088 0-.1699 0-.3397 0-.5096 0zm7.196-1.5911c.0626-1.9666-1.5912-3.5667-3.6472-3.5488-1.9576.0179-3.6471 1.6895-3.5577 3.5488z"></path>
        <path d="m26.0225 17.8089c.1699 2.5387 2.4225 4.1924 4.9255 3.6382.6525-.143 1.2872-.4559 1.8861-.7598.5721-.295 1.0817-.2861 1.3945.152.295.4112.1967.9386-.3039 1.3229-.7598.5989-1.6805.8135-2.6013.9923-1.3945.2681-2.7622.2056-4.0762-.3665-2.0739-.9029-3.1734-2.5477-3.4505-4.7467-.2503-1.9844.2145-3.7811 1.5822-5.3008 2.4672-2.7353 7.929-2.637 9.5738 1.8862.2056.5542.3397 1.1441.4291 1.7252.1341.9296-.3486 1.4481-1.2872 1.4481-2.503 0-5.0059 0-7.5089 0-.1788.0089-.3576.0089-.5632.0089zm7.2407-1.5732c-.0357-2.1186-1.7163-3.674-3.808-3.5488-1.922.1073-3.5578 1.8146-3.3969 3.5488z"></path>
        <path d="m41.8804 20.5189c.0984-.2324.1699-.3754.2235-.5184 1.0638-2.6817 2.1365-5.3724 3.1913-8.063.1787-.4559.429-.8224.9475-.9028.8939-.1431 1.5197.6883 1.171 1.5643-.9296 2.2884-1.8772 4.5678-2.8158 6.8562-.3575.8671-.7151 1.7342-1.0727 2.6012-.3039.733-.8313 1.1442-1.6358 1.1621-.742.009-1.2694-.3665-1.5912-1.1442-1.3051-3.1376-2.6013-6.2662-3.8974-9.4127-.3755-.9208.1966-1.761 1.1173-1.6359.4828.0626.742.3844.9118.8135.9833 2.4761 1.9666 4.9522 2.9589 7.4283.143.3844.295.7687.4916 1.2514z"></path>
        <path d="m72.0588 13.0998c-.4023 0-.733 0-1.0548 0-.6526-.0089-1.0459-.3665-1.0459-.9564 0-.5811.3844-.9297 1.0548-.9476.3218-.0089.6526 0 1.0459 0 0-.2235-.0089-.4112 0-.5989.0179-.4022.0268-.8045.0804-1.19782.3844-2.54761 3.2271-3.87952 5.4618-2.56549.4828.28605.6526.6883.4649 1.11737-.1788.4112-.6079.58104-1.1353.42014-.1251-.03576-.2503-.08045-.3844-.12515-1.0548-.3218-1.9576.19666-2.2079 1.26934-.0447.18772-.0715.38438-.0805.57211-.0089.3397 0 .6793 0 1.1084.5364 0 1.0459-.0089 1.5644 0 .5363.009.8671.2861.9654.7509.1162.6078-.2592 1.1084-.876 1.1442-.2682.0179-.5364.0089-.8046.0089-.2681 0-.5274 0-.8581 0v.5632 8.0004.3129c-.009.7598-.438 1.2425-1.1085 1.2335-.6436-.0089-1.0727-.4916-1.0816-1.2157-.0089-1.1889 0-2.3867 0-3.5756 0-1.5911 0-3.1912 0-4.7823 0-.1609 0-.3218 0-.5364z"></path>
        <path d="m89.4092 11.1939c.4828 0 .9565-.0089 1.4303 0 .6615.0089 1.0459.3665 1.0459.9565 0 .581-.3844.9386-1.0548.9475-.4738.009-.9476 0-1.4571 0-.0179.1609-.0358.2861-.0358.4201 0 2.1186-.0089 4.2282 0 6.3467 0 .2503.0358.5096.1162.742.1878.5631.6258.8224 1.2158.7419.1787-.0179.3486-.0715.5274-.0894.4469-.0536.8492.1967.9922.5989.1341.3933.0179.8314-.3844 1.0459-1.0995.5721-2.2526.581-3.3611.0804-.9833-.4469-1.2962-1.3587-1.3051-2.3688-.0179-2.3062-.0089-4.6214-.0089-6.9277 0-.1788 0-.3486 0-.59-.4023 0-.7599.009-1.1085 0-.6078-.0179-1.0101-.3933-1.0191-.9565-.0089-.5452.4023-.9296 1.0191-.9475.3486-.0089.7062 0 1.1085 0 0-.7598 0-1.45705 0-2.15429 0-.75981.4201-1.23358 1.0995-1.23358.6704-.00894 1.0995.47377 1.1084 1.23358.009.67043.009 1.34089.009 2.01129 0 .0179.0268.0447.0625.143z"></path>
        <path d="m64.532 12.8665c.4202-.3933.8046-.7688 1.2068-1.1084.4827-.4112 1.0459-.6883 1.6895-.742.6347-.0536 1.0638.2414 1.171.7867.1073.5452-.2503 1.1173-.8134 1.2693-.3129.0894-.6436.1073-.9655.1788-.8045.1877-1.5107.5631-2.0202 1.2246-.152.1877-.2503.4738-.2592.7151-.0179 2.2884-.0179 4.5857-.009 6.8741 0 .4649-.1877.8045-.5989 1.0191-.3754.1966-.7866.2056-1.0906-.0805-.2234-.2145-.4558-.5631-.4648-.8492-.0357-3.361-.0268-6.7311-.0179-10.0921 0-.5811.4827-1.0191 1.0727-1.0369.5721-.0179 1.0548.429 1.0817 1.019.0268.2771.0178.5453.0178.8224z"></path>
        <path d="m80.3628 17.1039c0-1.609 0-3.218 0-4.827 0-.7867.438-1.2694 1.1263-1.2604.6526.0089 1.0638.5006 1.0638 1.2783v9.6541c0 .7419-.4023 1.2246-1.037 1.2604-.6525.0357-1.1442-.438-1.1442-1.1442-.0089-1.6537-.0089-3.3074-.0089-4.9612z"></path>
        <path d="m81.4091 9.55914c-.7688-.00894-1.3945-.64361-1.3945-1.39449.0089-.77769.6704-1.4213 1.4392-1.40342.7598.01788 1.3676.66148 1.3676 1.43024-.0089.76875-.6346 1.3766-1.4123 1.36767z"></path>
    </g>
</svg>