<svg fill="none" height="28" viewBox="0 0 93 28" width="93" xmlns="http://www.w3.org/2000/svg" xmlns:xlink="http://www.w3.org/1999/xlink"><clipPath id="a"><path d="m0 0h93v28h-93z"/></clipPath><g clip-path="url(#a)" fill="#fff"><path d="m0 5.80891c.178782-.5721.357565-1.14419.572103-1.82356.196661.24135.312869.38438.420139.53634.822398 1.09056 1.841458 1.93083 3.057178 2.55655 2.94991 1.52857 5.89088 3.05716 8.84078 4.59466.447.2324.9207.4291 1.3498.6883 2.0292 1.1978 2.5477 3.1912 1.3409 5.2293-1.8683 3.1644-3.7455 6.3288-5.62273 9.4932-.12514.2146-.25923.4291-.44695.6258.12515-.5006.24135-1.0012.3665-1.5018.42018-1.7789-.01788-3.3611-1.028-4.8628-1.9666-2.9141-3.87957-5.864-5.81042-8.796-.01788-.0357-.02682-.0715-.07151-.2145 2.77112 1.7163 5.47073 3.3879 8.17031 5.0594.2146-.5363.009-1.0726-.581-1.4928-.71513-.5095-1.44814-1.0011-2.17221-1.4928-1.83252-1.2693-3.64716-2.5744-5.51543-3.7901-1.38557-.90285-2.476139-1.98447-2.86946-3.64712 0-.38438 0-.76876 0-1.16207z"/><path d="m3.89004-.00048828c.15196.22347528.22347.33074328.30393.42907228.50059.563156.94754 1.197826 1.52858 1.653716.68832.53634 1.46602.96541 2.25266 1.35873 2.84259 1.40342 5.70319 2.78002 8.55469 4.15663 2.065 1.00117 2.7801 3.15544 1.7074 5.18464-.4291.8134-.8671 1.6179-1.3409 2.485-.0625-.1162-.0893-.1519-.0893-.1877.0983-1.618-.7777-2.6817-2.0471-3.4594-3.0661-1.86824-6.19481-3.62029-9.22517-5.54217-2.02024-1.26934-2.29735-2.59231-1.99342-4.75555.06257-.402252.2056-.795567.34863-1.32296828z"/><path d="m50.8478 17.8097c-.0536 1.8057 1.5376 3.5041 3.4058 3.7008 1.2157.1341 2.3331-.1431 3.3611-.7956.1162-.0715.2235-.152.3487-.1877.4112-.152.7687-.0447 1.0369.295.2771.3486.2592.7419-.0268 1.0637-.1967.2324-.447.4559-.7241.581-1.904.885-3.8885 1.171-5.8998.447-2.2258-.8045-3.4505-2.4761-3.7634-4.7913-.3218-2.4135.3576-4.4874 2.3153-6.0338 2.5297-2.0113 7.8217-1.8057 9.1089 3.4057.0626.2593.1073.5274.152.7867.143.9743-.3218 1.5196-1.2962 1.5285-2.5029 0-5.0059 0-7.5088 0-.1699 0-.3397 0-.5096 0zm7.196-1.5911c.0626-1.9666-1.5911-3.5667-3.6471-3.5488-1.9577.0179-3.6472 1.6895-3.5578 3.5488z"/><path d="m26.023 17.8091c.1698 2.5386 2.4225 4.1923 4.9254 3.6381.6526-.143 1.2873-.4559 1.8862-.7598.5721-.295 1.0816-.286 1.3945.152.295.4112.1967.9386-.3039 1.3229-.7599.599-1.6806.8135-2.6013.9923-1.3945.2681-2.7622.2056-4.0762-.3665-2.0739-.9029-3.1734-2.5476-3.4505-4.7466-.2503-1.9845.2145-3.7812 1.5822-5.3009 2.4672-2.7353 7.929-2.637 9.5738 1.8862.2056.5542.3397 1.1442.429 1.7252.1341.9297-.3486 1.4481-1.2872 1.4481-2.5029 0-5.0059 0-7.5088 0-.1788.009-.3576.009-.5632.009zm7.2407-1.5733c-.0358-2.1185-1.7163-3.6739-3.8081-3.5488-1.9219.1073-3.5578 1.8146-3.3969 3.5488z"/><path d="m41.8816 20.5191c.0983-.2325.1698-.3755.2234-.5185 1.0638-2.6817 2.1365-5.3723 3.1913-8.063.1788-.4559.4291-.8224.9475-.9028.894-.143 1.5197.6883 1.1711 1.5643-.9297 2.2884-1.8772 4.5678-2.8159 6.8562-.3575.8671-.7151 1.7342-1.0726 2.6013-.304.733-.8314 1.1442-1.6359 1.162-.742.009-1.2694-.3665-1.5912-1.1442-1.3051-3.1375-2.6012-6.2662-3.8974-9.4127-.3755-.9207.1966-1.761 1.1174-1.6359.4827.0626.7419.3844.9118.8135.9833 2.4761 1.9666 4.9522 2.9588 7.4283.143.3844.295.7688.4917 1.2515z"/><path d="m72.0597 13.0999c-.4023 0-.733 0-1.0548 0-.6526-.0089-1.0459-.3664-1.0459-.9564 0-.5811.3844-.9297 1.0548-.9476.3218-.0089.6526 0 1.0459 0 0-.2234-.009-.4112 0-.5989.0179-.4022.0268-.80448.0804-1.1978.3844-2.54761 3.2271-3.87952 5.4618-2.56549.4827.28605.6526.6883.4649 1.11738-.1788.41119-.6079.58103-1.1353.42013-.1252-.03576-.2503-.08045-.3844-.12515-1.0548-.3218-1.9577.19666-2.2079 1.26934-.0447.18772-.0716.38438-.0805.57209-.0089.3397 0 .6794 0 1.1084.5364 0 1.0459-.0089 1.5643 0 .5364.009.8671.2861.9655.7509.1162.6079-.2593 1.1085-.8761 1.1442-.2681.0179-.5363.0089-.8045.0089s-.5274 0-.8581 0v.5632 8.0004.3129c-.009.7598-.4381 1.2425-1.1085 1.2336-.6436-.009-1.0727-.4917-1.0816-1.2157-.009-1.1889 0-2.3868 0-3.5756 0-1.5912 0-3.1913 0-4.7824 0-.1609 0-.3218 0-.5364z"/><path d="m89.4091 11.1942c.4827 0 .9565-.009 1.4302 0 .6615.0089 1.0459.3665 1.0459.9564 0 .5811-.3844.9386-1.0548.9476-.4738.0089-.9475 0-1.4571 0-.0179.1609-.0357.286-.0357.4201 0 2.1185-.009 4.2281 0 6.3467 0 .2503.0357.5095.1162.7419.1877.5632.6257.8224 1.2157.742.1788-.0179.3486-.0716.5274-.0894.447-.0537.8492.1966.9922.5989.1341.3933.0179.8313-.3843 1.0458-1.0995.5721-2.2527.5811-3.3611.0805-.9833-.447-1.2962-1.3587-1.3052-2.3688-.0178-2.3063-.0089-4.6215-.0089-6.9278 0-.1787 0-.3486 0-.5899-.4022 0-.7598.0089-1.1084 0-.6079-.0179-1.0102-.3934-1.0191-.9565-.0089-.5453.4023-.9297 1.0191-.9475.3486-.009.7062 0 1.1084 0 0-.7599 0-1.4571 0-2.15434 0-.75982.4201-1.23359 1.0995-1.23359.6705-.00893 1.0995.47377 1.1085 1.23359.0089.67042.0089 1.34084.0089 2.01124 0 .0179.0268.0447.0626.1431z"/><path d="m64.5318 12.8666c.4201-.3933.8045-.7687 1.2067-1.1084.4827-.4112 1.0459-.6883 1.6895-.742.6347-.0536 1.0638.2414 1.171.7867.1073.5453-.2502 1.1174-.8134 1.2693-.3129.0894-.6436.1073-.9654.1788-.8045.1877-1.5107.5632-2.0203 1.2246-.1519.1878-.2503.4738-.2592.7152-.0179 2.2883-.0179 4.5857-.0089 6.8741 0 .4648-.1878.8045-.599 1.019-.3754.1967-.7866.2056-1.0905-.0805-.2235-.2145-.4559-.5631-.4649-.8492-.0357-3.361-.0268-6.731-.0178-10.0921 0-.581.4827-1.019 1.0726-1.0369.5722-.0179 1.0549.4291 1.0817 1.019.0268.2771.0179.5453.0179.8224z"/><path d="m80.3633 17.1042c0-1.609 0-3.2181 0-4.8271 0-.7866.438-1.2693 1.1263-1.2604.6526.009 1.0638.5006 1.0638 1.2783v9.6541c0 .742-.4023 1.2247-1.037 1.2604-.6525.0358-1.1442-.438-1.1442-1.1442-.0089-1.6537-.0089-3.3074-.0089-4.9611z"/><path d="m81.4101 9.55926c-.7687-.00894-1.3945-.64361-1.3945-1.39449.009-.77769.6705-1.4213 1.4392-1.40342.7598.01788 1.3677.66149 1.3677 1.43024-.0089.76875-.6347 1.37661-1.4124 1.36767z"/></g></svg>